<svg width="27" height="25" viewBox="0 0 27 25" fill="none" xmlns="http://www.w3.org/2000/svg">
<g id="Quantity">
<g id="Group 34">
<path id="Vector" d="M21.9385 0.900391L22.1504 0.913086C22.5696 0.965313 22.9582 1.17126 23.251 1.48828L23.3896 1.65527L23.3906 1.65625L25.9512 5.23047L26.0645 5.38867H26.0078C26.0112 5.41816 26.0109 5.44945 26 5.48242V22.9795L25.9912 23.1445C25.9079 23.9597 25.214 24.6287 24.3516 24.6289H2.46094C1.54189 24.6289 0.8125 23.8983 0.8125 22.9795V5.46777C0.8125 5.38002 0.85495 5.29791 0.881836 5.24414L0.885742 5.2373L0.890625 5.23047L3.44922 1.65918L3.58008 1.49023C3.90951 1.11681 4.40711 0.900391 4.90332 0.900391H21.9385ZM1.60742 22.9795C1.60742 23.4328 1.98218 23.833 2.46094 23.833H24.3809C24.8341 23.833 25.2344 23.4583 25.2344 22.9795V5.86523H17.0947V10.8584L17.0889 10.9492C17.0597 11.1607 16.9315 11.3585 16.7529 11.4775L16.7451 11.4824L16.7363 11.4863C16.513 11.5819 16.2689 11.6219 16.0225 11.4814V11.4805L13.4209 10.0781L10.8174 11.4824C10.7111 11.5505 10.5767 11.5839 10.4727 11.584C10.3388 11.584 10.1983 11.5506 10.0889 11.4775V11.4766C9.88734 11.3421 9.74712 11.135 9.74707 10.8584V5.86523H1.60742V22.9795ZM10.543 5.54102V10.7803L13.373 9.22168L13.4209 9.19531L13.4688 9.22168L16.2988 10.751V5.50977L15.2217 1.69531H11.6504L10.543 5.54102ZM17.0107 5.06934H24.8711L22.751 2.10059V2.09961C22.5835 1.88642 22.334 1.73721 22.0586 1.70312L21.9395 1.69531H16.0557L17.0107 5.06934ZM4.90332 1.69531C4.57443 1.69531 4.27946 1.83171 4.0918 2.09961L4.09082 2.10059L1.9707 5.06934H9.86133L10.8164 1.69531H4.90332Z" fill="#DBA362" stroke="#DBA362" stroke-width="0.2"/>
<path id="Vector_2" d="M15.9033 5.06982V5.86475H10.9385V5.06982H15.9033Z" fill="#DBA362" stroke="#DBA362" stroke-width="0.2"/>
</g>
</g>
</svg>
